<svg width="691" height="448" fill="none" xmlns="http://www.w3.org/2000/svg"><g filter="url(#filter0_d)"><rect x="80" y="68" width="531" height="276" rx="10" fill="#000"/><path d="M115.608 396a14.702 14.702 0 011.58-.12c.56-.027 1.033-.04 1.42-.04 1.213 0 2.226.173 3.04.52.826.347 1.486.833 1.98 1.46.506.613.866 1.353 1.08 2.22.226.867.34 1.82.34 2.86 0 .947-.1 1.86-.3 2.74a6.33 6.33 0 01-1.04 2.32c-.494.667-1.16 1.207-2 1.62-.827.4-1.867.6-3.12.6-.174 0-.4-.007-.68-.02-.28 0-.567-.013-.86-.04l-.84-.04a4.331 4.331 0 01-.6-.06V396zm3.08 1.32c-.187 0-.427.007-.72.02-.28.013-.514.04-.7.08v11.2c.066.013.16.027.28.04.133 0 .266.007.4.02.133 0 .26.007.38.02h.32c.973 0 1.76-.16 2.36-.48.613-.32 1.086-.747 1.42-1.28a5.27 5.27 0 00.68-1.86 13 13 0 00.18-2.18c0-.653-.054-1.307-.16-1.96a4.79 4.79 0 00-.66-1.8c-.32-.533-.787-.967-1.4-1.3-.6-.347-1.394-.52-2.38-.52zm8.272 5.68c0-2.32.407-4.107 1.22-5.36.827-1.253 2.093-1.88 3.8-1.88.933 0 1.72.173 2.36.52.653.347 1.18.84 1.58 1.48.4.627.687 1.387.86 2.28.173.88.26 1.867.26 2.96 0 2.32-.413 4.107-1.24 5.36-.813 1.253-2.087 1.88-3.82 1.88-.92 0-1.7-.173-2.34-.52a4.2 4.2 0 01-1.56-1.46c-.4-.64-.687-1.4-.86-2.28a15.723 15.723 0 01-.26-2.98zm1.76 0c0 .773.047 1.507.14 2.2.107.693.287 1.307.54 1.84a3.5 3.5 0 001 1.26c.413.307.94.46 1.58.46 1.147 0 1.98-.467 2.5-1.4.533-.933.8-2.387.8-4.36 0-.76-.053-1.487-.16-2.18-.093-.707-.267-1.32-.52-1.84-.253-.533-.593-.953-1.02-1.26-.427-.32-.96-.48-1.6-.48-1.133 0-1.96.473-2.48 1.42-.52.933-.78 2.38-.78 4.34zM188.008 396.14a17.549 17.549 0 011.74-.22c.666-.053 1.273-.08 1.82-.08.613 0 1.193.067 1.74.2a3.95 3.95 0 011.46.66c.426.307.766.707 1.02 1.2.253.493.38 1.093.38 1.8 0 .547-.094 1.033-.28 1.46a4.014 4.014 0 01-.66 1.08c-.254.293-.52.533-.8.72-.28.187-.52.32-.72.4l3.7 6.64h-1.94l-3.3-6.16h-2.5V410h-1.66v-13.86zm3.6 1.14h-.54c-.187 0-.367.007-.54.02l-.5.04a1.94 1.94 0 00-.36.06v5.16h1.56c.92 0 1.68-.227 2.28-.68.6-.453.9-1.16.9-2.12 0-.72-.247-1.313-.74-1.78-.494-.467-1.18-.7-2.06-.7zm8.532-1.28h8.22v1.48h-6.56v4.58h6.06v1.48h-6.06v4.98h6.66V410h-8.32v-14zm4.9-3.4h2.28v.42l-3.26 1.94h-1.38l2.36-2.36zM269.148 400.7l.2-1.9h-.1l-.96 1.72-2.04 3.42h-.5l-2.14-3.44-.92-1.7h-.1l.24 1.88V410h-1.62v-14h1.54l3.32 5.32h.04l3.2-5.32h1.5v14h-1.66v-9.3zm4.052-4.7h9.6v1.48h-3.98v11.04h3.98V410h-9.6v-1.48h3.96v-11.04h-3.96V396zM336.348 396h8.02v1.48h-6.36v4.78h5.96v1.48h-5.96V410h-1.66v-14zm18.272 10.12h-5.38l-1.28 3.88h-1.64l4.68-14h1.96l4.72 14h-1.74l-1.32-3.88zm-4.86-1.44h4.4l-2.06-6.58h-.24l-2.1 6.58zM404.012 408.02c.4.213.846.393 1.34.54a6.117 6.117 0 002.76.08c.386-.093.72-.233 1-.42.293-.2.52-.447.68-.74.173-.293.26-.64.26-1.04 0-.547-.187-.993-.56-1.34-.36-.347-.814-.653-1.36-.92a25.09 25.09 0 00-1.78-.78 10.52 10.52 0 01-1.78-.9 5.212 5.212 0 01-1.38-1.26c-.36-.507-.54-1.147-.54-1.92 0-.547.106-1.04.32-1.48.226-.44.54-.813.94-1.12.4-.307.88-.54 1.44-.7a6.553 6.553 0 011.9-.26c.8 0 1.526.06 2.18.18.653.107 1.173.253 1.56.44l.04-.02v.04h.02l-.02.06v3.2h-1.48v-2.14c-.334-.08-.7-.147-1.1-.2-.4-.053-.827-.08-1.28-.08-.44 0-.84.053-1.2.16a2.974 2.974 0 00-.9.44c-.24.173-.427.38-.56.62-.134.24-.2.493-.2.76 0 .52.18.953.54 1.3.373.347.833.66 1.38.94.546.267 1.14.533 1.78.8.64.267 1.233.58 1.78.94.546.347 1 .767 1.36 1.26.373.493.56 1.107.56 1.84 0 .6-.114 1.14-.34 1.62-.214.48-.527.893-.94 1.24-.4.347-.9.613-1.5.8-.587.187-1.254.28-2 .28-.507 0-.987-.04-1.44-.12a10.23 10.23 0 01-1.26-.3c-.374-.12-.714-.247-1.02-.38a11.781 11.781 0 01-.7-.34l.02-.06v-3.24h1.48v2.22zm9.952-5.02c0-2.32.407-4.107 1.22-5.36.827-1.253 2.093-1.88 3.8-1.88.933 0 1.72.173 2.36.52.653.347 1.18.84 1.58 1.48.4.627.687 1.387.86 2.28.173.88.26 1.867.26 2.96 0 2.32-.413 4.107-1.24 5.36-.813 1.253-2.087 1.88-3.82 1.88-.92 0-1.7-.173-2.34-.52a4.2 4.2 0 01-1.56-1.46c-.4-.64-.687-1.4-.86-2.28a15.723 15.723 0 01-.26-2.98zm1.76 0c0 .773.047 1.507.14 2.2.107.693.287 1.307.54 1.84a3.5 3.5 0 001 1.26c.413.307.94.46 1.58.46 1.147 0 1.98-.467 2.5-1.4.533-.933.8-2.387.8-4.36 0-.76-.053-1.487-.16-2.18-.093-.707-.267-1.32-.52-1.84-.253-.533-.593-.953-1.02-1.26-.427-.32-.96-.48-1.6-.48-1.133 0-1.96.473-2.48 1.42-.52.933-.78 2.38-.78 4.34zm11.072-7h1.66v12.52h5.66v-3.48h1.48V410h-8.8v-14zM481.808 396h1.66v12.52h5.66v-3.48h1.48V410h-8.8v-14zm18.812 10.12h-5.38l-1.28 3.88h-1.64l4.68-14h1.96l4.72 14h-1.74l-1.32-3.88zm-4.86-1.44h4.4l-2.06-6.58h-.24l-2.1 6.58zM555.008 408.02c.4.213.846.393 1.34.54a6.117 6.117 0 002.76.08c.386-.093.72-.233 1-.42.293-.2.52-.447.68-.74.173-.293.26-.64.26-1.04 0-.547-.187-.993-.56-1.34-.36-.347-.814-.653-1.36-.92a25.09 25.09 0 00-1.78-.78 10.52 10.52 0 01-1.78-.9 5.212 5.212 0 01-1.38-1.26c-.36-.507-.54-1.147-.54-1.92 0-.547.106-1.04.32-1.48.226-.44.54-.813.94-1.12.4-.307.88-.54 1.44-.7a6.553 6.553 0 011.9-.26c.8 0 1.526.06 2.18.18.653.107 1.173.253 1.56.44l.04-.02v.04h.02l-.02.06v3.2h-1.48v-2.14c-.334-.08-.7-.147-1.1-.2-.4-.053-.827-.08-1.28-.08-.44 0-.84.053-1.2.16a2.974 2.974 0 00-.9.44c-.24.173-.427.38-.56.62-.134.24-.2.493-.2.76 0 .52.18.953.54 1.3.373.347.833.66 1.38.94.546.267 1.14.533 1.78.8.64.267 1.233.58 1.78.94.546.347 1 .767 1.36 1.26.373.493.56 1.107.56 1.84 0 .6-.114 1.14-.34 1.62-.214.48-.527.893-.94 1.24-.4.347-.9.613-1.5.8-.587.187-1.254.28-2 .28-.507 0-.987-.04-1.44-.12a10.23 10.23 0 01-1.26-.3c-.374-.12-.714-.247-1.02-.38a11.781 11.781 0 01-.7-.34l.02-.06v-3.24h1.48v2.22zM565.2 396h9.6v1.48h-3.98v11.04h3.98V410h-9.6v-1.48h3.96v-11.04h-3.96V396z" fill="#fff" fill-opacity=".4"/><path d="M92 85a5 5 0 015-5h64v252H97a5 5 0 01-5-5V85zM165 80h69v252h-69zM238 80h69v252h-69zM311 80h69v252h-69zM384 80h69v252h-69zM457 80h69v252h-69zM530 80h64a5 5 0 015 5v242a5 5 0 01-5 5h-64V80z" fill="#fff"/><path d="M148 80h30v179a5 5 0 01-5 5h-20a5 5 0 01-5-5V80zM221 80h30v179a5 5 0 01-5 5h-20a5 5 0 01-5-5V80zM367 80h30v179a5 5 0 01-5 5h-20a5 5 0 01-5-5V80zM440 80h30v179a5 5 0 01-5 5h-20a5 5 0 01-5-5V80zM513 80h30v179a5 5 0 01-5 5h-20a5 5 0 01-5-5V80z" fill="#000"/></g><defs><filter id="filter0_d" x="0" y="0" width="691" height="502.24" filterUnits="userSpaceOnUse" color-interpolation-filters="sRGB"><feFlood flood-opacity="0" result="BackgroundImageFix"/><feColorMatrix in="SourceAlpha" values="0 0 0 0 0 0 0 0 0 0 0 0 0 0 0 0 0 0 127 0"/><feOffset dy="12"/><feGaussianBlur stdDeviation="40"/><feColorMatrix values="0 0 0 0 0 0 0 0 0 0 0 0 0 0 0 0 0 0 0.3 0"/><feBlend in2="BackgroundImageFix" result="effect1_dropShadow"/><feBlend in="SourceGraphic" in2="effect1_dropShadow" result="shape"/></filter></defs></svg>